<svg class="border shadow-md" viewBox="0 0 518.32 518.32" style="width: 518.32px; height: 518.32px;" xmlns="http://www.w3.org/2000/svg" preserveAspectRatio="none"><rect class="bg" id="bg" x="0" y="0" width="518.32" height="518.32" fill="#ffffff"/><g transform="rotate(0 259.16 259.16)"><path d="M -359.16 -21.83 S -189.58 -47.75&#10;            0.00 -21.83 169.58 -52.83&#10;            359.16 -21.83 356.32 -52.83&#10;            718.32 -21.83 887.90 -67.83&#10;            1077.48 -21.83 h 110 V 718.32 H -359.16 Z" fill="#1BA4FF" id="-1"/><path d="M -359.16 30.00 S -189.58 0.00&#10;            0.00 30.00 133.16 4.08&#10;            359.16 30.00 506.32 -20.00&#10;            718.32 30.00 841.48 -14.00&#10;            1077.48 30.00 h 110 V 718.32 H -359.16 Z" fill="#1c97f2" id="0"/><path id="1" d="M -359.16 81.83 S -189.58 55.92&#10;            0.00 81.83 163.16 41.83&#10;            359.16 81.83 528.74 42.83&#10;            718.32 81.83 735.48 55.92&#10;            1077.48 81.83 h 110 V 718.32 H -359.16 Z" fill="#1d8ae5"/><path id="2" d="M -359.16 133.66 S -253.00 107.75&#10;            0.00 133.66 96.16 86.66&#10;            359.16 133.66 463.32 90.66&#10;            718.32 133.66 748.48 107.75&#10;            1077.48 133.66 h 110 V 718.32 H -359.16 Z" fill="#1e7dd8"/><path id="3" d="M -359.16 185.50 S -189.58 159.58&#10;            0.00 185.50 169.58 159.58&#10;            359.16 185.50 528.74 159.58&#10;            718.32 185.50 862.48 159.58&#10;            1077.48 185.50 h 110 V 718.32 H -359.16 Z" fill="#1f70cb"/><path id="4" d="M -359.16 237.33 S -189.58 211.41&#10;            0.00 237.33 85.16 199.33&#10;            359.16 237.33 528.74 207.33&#10;            718.32 237.33 887.90 209.33&#10;            1077.48 237.33 h 110 V 718.32 H -359.16 Z" fill="#2063be"/><path id="5" d="M -359.16 289.16 S -266.00 262.16&#10;            0.00 289.16 169.58 260.16&#10;            359.16 289.16 528.74 258.16&#10;            718.32 289.16 809.48 263.24&#10;            1077.48 289.16 h 110 V 718.32 H -359.16 Z" fill="#2156b1"/><path id="6" d="M -359.16 340.99 S -189.58 310.99&#10;            0.00 340.99 129.16 315.08&#10;            359.16 340.99 496.32 315.08&#10;            718.32 340.99 887.90 309.99&#10;            1077.48 340.99 h 110 V 718.32 H -359.16 Z" fill="#2249a4"/><path id="7" d="M -359.16 392.82 S -189.58 345.82&#10;            0.00 392.82 169.58 361.82&#10;            359.16 392.82 528.74 366.91&#10;            718.32 392.82 840.48 357.82&#10;            1077.48 392.82 h 110 V 718.32 H -359.16 Z" fill="#233c97"/><path id="8" d="M -359.16 444.66 S -189.58 410.66&#10;            0.00 444.66 44.16 418.74&#10;            359.16 444.66 501.32 418.74&#10;            718.32 444.66 882.48 399.66&#10;            1077.48 444.66 h 110 V 718.32 H -359.16 Z" fill="#242f8a"/><path id="9" d="M -359.16 496.49 S -189.58 470.57&#10;            0.00 496.49 40.16 469.49&#10;            359.16 496.49 463.32 462.49&#10;            718.32 496.49 887.90 470.57&#10;            1077.48 496.49 h 110 V 718.32 H -359.16 Z" fill="#25227d"/></g></svg>